<?xml version="1.0" encoding="UTF-8"?>
<svg id="Laag_1" data-name="Laag 1" xmlns="http://www.w3.org/2000/svg" viewBox="0 0 439.37 439.37">
  <defs>
    <style>
      .cls-1 {
        fill: #fbf4ea;
      }

      .cls-2 {
        fill: #eb5c43;
      }
    </style>
  </defs>
  <rect class="cls-2" x="8.16" y="7.09" width="425.2" height="425.2" rx="70.87" ry="70.87"/>
  <path class="cls-1" d="M227.75,340.24c-21.68,0-39.83-3.11-54.42-9.32-14.6-6.21-26.39-14.74-35.34-25.59-8.96-10.84-15.39-23.2-19.3-37.08-3.9-13.88-5.85-28.47-5.85-43.8,0-16.48,2.09-32.23,6.29-47.27,4.19-15.03,10.69-28.4,19.51-40.11,8.82-11.71,20.23-20.96,34.26-27.75,14.02-6.79,30.86-10.19,50.52-10.19s36.49,3.4,50.52,10.19c14.02,6.8,25.22,16.26,33.61,28.4,8.38,12.14,13.8,26.17,16.26,42.07,2.45,15.9,2.09,33.11-1.08,51.61l-166.09,2.6v-38.16l112.32-2.17-9.11,22.12c1.73-13.29,1.52-24.5-.65-33.61-2.17-9.11-6.15-16.05-11.93-20.82-5.79-4.77-13.73-7.16-23.85-7.16-10.7,0-19.23,2.75-25.59,8.24-6.36,5.49-10.84,13.23-13.44,23.2-2.6,9.97-3.9,21.76-3.9,35.34,0,23.42,3.9,40.48,11.71,51.17,7.81,10.7,19.8,16.05,35.99,16.05,6.94,0,12.72-.87,17.35-2.6,4.62-1.73,8.38-4.26,11.28-7.59,2.89-3.32,4.91-7.37,6.07-12.14,1.15-4.77,1.59-10.19,1.3-16.26l64.18,3.47c.87,9.54-.07,19.37-2.82,29.49-2.75,10.12-7.88,19.51-15.39,28.19-7.52,8.67-18,15.76-31.44,21.25-13.44,5.49-30.43,8.24-50.96,8.24Z"/>
</svg>