<?xml version="1.0" encoding="UTF-8"?>
<svg id="Laag_1" data-name="Laag 1" xmlns="http://www.w3.org/2000/svg" viewBox="0 0 850.39 226.77">
  <defs>
    <style>
      .cls-1 {
        fill: #1c1715;
      }

      .cls-2 {
        fill: #eb5c43;
      }
    </style>
  </defs>
  <path class="cls-1" d="M98.64,195.59c-15,0-27.55-2.15-37.65-6.45-10.1-4.3-18.25-10.2-24.45-17.7-6.2-7.5-10.65-16.05-13.35-25.65-2.7-9.6-4.05-19.7-4.05-30.3,0-11.4,1.45-22.3,4.35-32.7,2.9-10.4,7.4-19.65,13.5-27.75,6.1-8.1,14-14.5,23.7-19.2,9.7-4.7,21.35-7.05,34.95-7.05s25.25,2.35,34.95,7.05c9.7,4.7,17.45,11.25,23.25,19.65,5.8,8.4,9.55,18.1,11.25,29.1,1.7,11,1.45,22.9-.75,35.7l-114.9,1.8v-26.4l77.7-1.5-6.3,15.3c1.2-9.2,1.05-16.95-.45-23.25-1.5-6.3-4.25-11.1-8.25-14.4-4-3.3-9.5-4.95-16.5-4.95-7.4,0-13.3,1.9-17.7,5.7-4.4,3.8-7.5,9.15-9.3,16.05-1.8,6.9-2.7,15.05-2.7,24.45,0,16.2,2.7,28,8.1,35.4,5.4,7.4,13.7,11.1,24.9,11.1,4.8,0,8.8-.6,12-1.8,3.2-1.2,5.8-2.95,7.8-5.25,2-2.3,3.4-5.1,4.2-8.4.8-3.3,1.1-7.05.9-11.25l44.4,2.4c.6,6.6-.05,13.4-1.95,20.4-1.9,7-5.45,13.5-10.65,19.5-5.2,6-12.45,10.9-21.75,14.7-9.3,3.8-21.05,5.7-35.25,5.7Z"/>
  <path class="cls-1" d="M708.85,195.57c-8,0-15.6-1.39-22.8-4.17-7.2-2.78-13.1-7.3-17.7-13.56-4.6-6.26-6.9-14.65-6.9-25.18,0-9.73,1.9-17.63,5.7-23.69,3.8-6.06,8.9-10.92,15.3-14.6,6.4-3.67,13.4-6.45,21-8.35,7.6-1.89,15.1-3.52,22.5-4.92,10.4-1.98,18.2-3.58,23.4-4.77,5.2-1.19,8.75-2.58,10.65-4.17,1.9-1.59,2.85-3.77,2.85-6.56,0-5.76-2.15-10.13-6.45-13.11-4.3-2.98-9.95-4.47-16.95-4.47-4.4,0-8.8.8-13.2,2.38-4.4,1.59-8,4.42-10.8,8.49-2.8,4.07-4.1,9.89-3.9,17.43l-43.2-2.98c-.4-12.52,1.5-22.9,5.7-31.14,4.2-8.24,9.95-14.7,17.25-19.37,7.3-4.67,15.3-8,24-9.98,8.7-1.98,17.35-2.98,25.95-2.98,15.8,0,28.8,2.93,39,8.79,10.2,5.86,17.75,14.3,22.65,25.33,4.9,11.03,7.35,24.39,7.35,40.08v67.65c0,6.56,0,17.3,0,23.86h-42c0-7.15,0-18.59,0-25.94v-23.24l.13-1.11c-.8,8.94-5.67,18.25-10.77,25.7s-11.8,13.41-20.1,17.88c-8.3,4.47-17.85,6.71-28.65,6.71ZM729.35,160.36c3.4,0,7.05-.65,10.95-1.95,3.9-1.3,7.6-3.45,11.1-6.45,3.5-3,6.35-7.15,8.55-12.45,2.2-5.3,3.3-11.85,3.3-19.65v-7.2l8.1-.9c-1.6,2.6-4.25,4.7-7.95,6.3-3.7,1.6-7.85,2.85-12.45,3.75-4.6.9-9.25,1.8-13.95,2.7-4.7.9-9.05,2.1-13.05,3.6-4,1.5-7.25,3.5-9.75,6-2.5,2.5-3.75,5.95-3.75,10.35,0,5.2,1.85,9.15,5.55,11.85,3.7,2.7,8.15,4.05,13.35,4.05Z"/>
  <path class="cls-1" d="M172.45,195.64V37.64h41v65l.1,3.35c1.4-16.82,6.46-33.58,10.56-43.6,4.1-10.01,9.61-17.27,16.52-21.77,6.91-4.5,15.17-6.76,24.78-6.76s18.12,2.45,24.32,7.36c6.2,4.91,10.81,12.42,13.81,22.52,3,10.11,4.4,23.08,4.2,38.89v3.35c1.41-16.62,6.71-33.28,11.11-43.29,4.4-10.01,10.21-17.32,17.42-21.92,7.21-4.6,15.71-6.91,25.53-6.91,8.21,0,15.32,1.5,21.32,4.5,6.01,3,11.06,7.51,15.17,13.51,4.1,6.01,7.16,13.57,9.16,22.67,2,9.11,3,19.77,3,31.98v89.05h-49v-84.75c0-7.6-.65-13.95-1.96-19.05-1.31-5.1-3.27-8.9-5.88-11.4-2.61-2.5-5.93-3.75-9.94-3.75-5.23,0-10.05,2.35-14.46,7.05-4.42,4.7-7.98,11.75-10.7,21.15-2.71,9.4-4.07,21.3-4.07,35.7v55.05s-47,.05-47,.05v-87c0-7.6-.66-13.8-1.97-18.6-1.32-4.8-3.34-8.4-6.06-10.8-2.73-2.4-6.12-3.6-10.16-3.6-5.06,0-9.76,2.05-14.1,6.15-4.35,4.1-7.88,10.85-10.61,20.25-2.73,9.4-4.09,21.9-4.09,37.5v56.1h-48Z"/>
  <path class="cls-1" d="M419.45,195.64V37.64h41v65l.1,3.35c1.4-16.82,6.46-33.58,10.56-43.6,4.1-10.01,9.61-17.27,16.52-21.77,6.91-4.5,15.17-6.76,24.78-6.76s18.12,2.45,24.32,7.36c6.2,4.91,10.81,12.42,13.81,22.52,3,10.11,4.4,23.08,4.2,38.89v3.35c1.41-16.62,6.71-33.28,11.11-43.29,4.4-10.01,10.21-17.32,17.42-21.92,7.21-4.6,15.71-6.91,25.53-6.91,8.21,0,15.32,1.5,21.32,4.5,6.01,3,11.06,7.51,15.17,13.51,4.1,6.01,7.16,13.57,9.16,22.67,2,9.11,3,19.77,3,31.98v89.05h-49v-84.75c0-7.6-.65-13.95-1.96-19.05-1.31-5.1-3.27-8.9-5.88-11.4-2.61-2.5-5.93-3.75-9.94-3.75-5.23,0-10.05,2.35-14.46,7.05-4.42,4.7-7.98,11.75-10.7,21.15-2.71,9.4-4.07,21.3-4.07,35.7v55.05s-47,.05-47,.05v-87c0-7.6-.66-13.8-1.97-18.6-1.32-4.8-3.34-8.4-6.06-10.8-2.73-2.4-6.12-3.6-10.16-3.6-5.06,0-9.76,2.05-14.1,6.15-4.35,4.1-7.88,10.85-10.61,20.25-2.73,9.4-4.09,21.9-4.09,37.5v56.1h-48Z"/>
  <rect class="cls-2" x="814.25" y="167.29" width="31.18" height="28.35" rx="12" ry="12"/>
</svg>